# xmcd CD database file
#
# Track frame offsets:
#	150
#	5345
#	23935
#	38190
#	58875
#	73205
#	86188
#	102435
#	124353
#	132828
#	133920
#	137253
#	149505
#	162233
#	175108
#	190490
#	212298
#	223895
#	239068
#	254243
#	263320
#
# Disc length: 3593 seconds
#
# Revision: 0
# Processed by: cddbd v1.4PL0 Copyright (c) Steve Scherf et al.
# Submitted via: CDex 1.51
#
DISCID=4c0e0715
DTITLE=Harry James And His Orchestra - The Radio Years
DYEAR=1997
DGENRE=Jazz
TTITLE0=Ciribiribin
TTITLE1=Tuxedo Junction
TTITLE2=How high the moon
TTITLE3=Cherokee
TTITLE4=Carnival of venice
TTITLE5=You've got me out on a limb
TTITLE6=Girl of my dreams
TTITLE7=It's a wonderful world
TTITLE8=With the wind and the rain in your hair
TTITLE9=Ciribiribin
TTITLE10=Ciribiribin
TTITLE11=Relaxin'
TTITLE12=The things i love
TTITLE13=Taboo
TTITLE14=Do i worry ?
TTITLE15=Cherry
TTITLE16=No. 10 Lullaby Lane
TTITLE17=Andalucia
TTITLE18=For want of a star
TTITLE19=Jeffrie's blues
TTITLE20=Ciribiribin
EXTD=YEAR: 1997
EXTT0=
EXTT1=
EXTT2=
EXTT3=
EXTT4=
EXTT5=
EXTT6=
EXTT7=
EXTT8=
EXTT9=
EXTT10=
EXTT11=
EXTT12=
EXTT13=
EXTT14=
EXTT15=
EXTT16=
EXTT17=
EXTT18=
EXTT19=
EXTT20=
PLAYORDER=
